#!OML:ASF I:\Actors\actors\Patient Classification 1\Patient 1\Session 1\Subject1.ASF
:FULLY-SPECIFIED
:DEGREES
753
root 0.818993 17.484 8.52448 6.50645 -1.07159 -8.80924
lowerback -3.74075 1.272 6.37634
upperback -4.99946 1.64384 2.00228
thorax -2.962 0.649403 -1.47816
lowerneck -2.56172 -4.67706 -1.7028
upperneck 27.4836 -8.13263 6.51853
head 9.3954 -3.35736 1.82844
rclavicle 3.70236e-015 4.59193e-014
rhumerus 5.75387 60.7892 -93.789
rradius 138.887
rwrist -3.64468
rhand -33.7359 -57.6589
rfingers 7.12502
rthumb -6.92465 -807.526
lclavicle 3.70236e-015 4.59193e-014
lhumerus -7.36227 -60.4618 101.282
lradius 136.449
lwrist 36.6704
lhand -38.4192 -45.1243
lfingers 7.12502
lthumb -11.4436 -15.4566
rfemur -2.52228 23.4898 26.2825
rtibia 4.91745
rfoot -12.6629 -21.0789
rtoes 0.591706
lfemur 6.06851 -39.3485 -11.4405
ltibia -3.32154
lfoot -17.0761 46.7204
ltoes 3.8611
754
root 0.818356 17.4844 8.52736 6.52584 -1.06674 -8.77521
lowerback -3.77203 1.16416 6.25882
upperback -5.00297 1.50178 2.11517
thorax -2.96307 0.584345 -1.29797
lowerneck -2.5773 -4.51863 -1.50583
upperneck 27.421 -7.86509 6.282
head 9.34354 -3.23749 1.73729
rclavicle 1.18277e-014 2.8625e-014
rhumerus 5.72053 61.03 -93.844
rradius 138.792
rwrist -2.93146
rhand -33.2896 -56.805
rfingers 7.12502
rthumb -6.49381 -806.685
lclavicle 1.18277e-014 2.8625e-014
lhumerus -7.30181 -60.313 101.244
lradius 136.404
lwrist 36.5001
lhand -38.3316 -46.5535
lfingers 7.12502
lthumb -11.359 -16.8812
rfemur -2.52226 23.5547 26.2428
rtibia 4.91767
rfoot -12.7557 -21.1185
rtoes 0.821307
lfemur 6.05006 -39.3511 -11.4703
ltibia -3.31059
lfoot -16.9761 46.7304
ltoes 3.65612
755
root 0.817921 17.4846 8.53026 6.51864 -1.03875 -8.7864
lowerback -3.79345 0.587077 5.71275
upperback -4.93525 0.750424 2.83648
thorax -2.94309 0.241938 -0.260302
lowerneck -2.77923 -3.94206 -2.08708
upperneck 27.466 -6.84991 5.7436
head 9.34399 -2.87088 1.73853
rclavicle -1.3946e-014 -1.24737e-014
rhumerus 5.96337 62.1729 -93.6958
rradius 138.981
rwrist -4.90801
rhand -33.2118 -55.4629
rfingers 7.12502
rthumb -6.4187 -805.346
lclavicle -1.3946e-014 -1.24737e-014
lhumerus -6.90503 -58.7938 101.025
lradius 136.343
lwrist 36.0646
lhand -38.3782 -47.8347
lfingers 7.12502
lthumb -11.404 -18.1649
rfemur -2.47536 23.6126 26.275
rtibia 4.89731
rfoot -12.8056 -21.1806
rtoes 1.12073
lfemur 6.0864 -39.4396 -11.4887
ltibia -3.30163
lfoot -16.9819 46.775
ltoes 3.67186
756
root 0.817866 17.484 8.53253 6.50847 -1.02154 -8.83312
lowerback -3.78865 1.04663 6.20998
upperback -5.01163 1.34846 2.27969
thorax -2.97787 0.511967 -1.10304
lowerneck -2.36528 -4.30463 -1.15035
upperneck 27.0387 -7.44389 5.7957
head 9.11289 -3.06762 1.5521
rclavicle 8.4235e-015 1.59028e-014
rhumerus 5.62908 61.4554 -93.9281
rradius 138.8
rwrist -2.54218
rhand -33.2743 -56.3939
rfingers 7.12502
rthumb -6.47898 -806.275
lclavicle 8.4235e-015 1.59028e-014
lhumerus -7.18165 -60.2116 101.215
lradius 136.358
lwrist 36.344
lhand -38.5017 -48.4614
lfingers 7.12502
lthumb -11.5231 -18.7982
rfemur -2.45598 23.5891 26.3405
rtibia 4.91657
rfoot -12.8215 -21.1545
rtoes 1.24481
lfemur 6.12709 -39.5027 -11.465
ltibia -3.30186
lfoot -17.0105 46.8132
ltoes 3.6867
757
root 0.817928 17.4832 8.53489 6.49247 -0.994686 -8.86154
lowerback -3.80047 0.565208 5.80418
upperback -4.97252 0.722087 2.86966
thorax -2.9797 0.224112 -0.276989
lowerneck -2.48588 -3.77438 -1.78338
upperneck 27.1325 -6.57088 5.54619
head 9.13925 -2.74218 1.64903
rclavicle -2.02885e-014 2.86747e-014
rhumerus 5.82255 62.2478 -93.8493
rradius 138.981
rwrist -4.77069
rhand -33.2849 -55.1447
rfingers 7.12502
rthumb -6.48925 -805.025
lclavicle -2.02885e-014 2.86747e-014
lhumerus -6.90497 -58.8668 101.062
lradius 136.277
lwrist 36.0399
lhand -38.4452 -49.262
lfingers 7.12502
lthumb -11.4687 -19.5957
rfemur -2.43055 23.5525 26.3852
rtibia 4.92712
rfoot -12.8486 -21.1261
rtoes 1.28534
lfemur 6.13522 -39.4985 -11.4385
ltibia -3.28312
lfoot -17.1061 46.7752
ltoes 3.77092
758
root 0.817723 17.4825 8.53762 6.4946 -0.953371 -8.85187
lowerback -3.84816 0.967343 6.18471
upperback -5.00276 1.23907 2.35058
thorax -2.94409 0.460517 -1.01645
lowerneck -2.31006 -4.10176 -0.902519
upperneck 26.885 -7.14133 5.67753
head 9.02142 -2.91773 1.49736
rclavicle -1.8313e-014 1.05356e-014
rhumerus 5.77833 61.59 -93.8224
rradius 138.77
rwrist -2.47613
rhand -33.519 -55.7344
rfingers 7.12502
rthumb -6.71524 -805.608
lclavicle -1.8313e-014 1.05356e-014
lhumerus -6.99577 -60.0353 101.091
lradius 136.22
lwrist 36.2363
lhand -38.2801 -49.9331
lfingers 7.12502
lthumb -11.3094 -20.258
rfemur -2.40654 23.5776 26.3858
rtibia 4.90723
rfoot -12.8511 -21.189
rtoes 1.40954
lfemur 6.08833 -39.411 -11.4037
ltibia -3.26657
lfoot -17.1307 46.64
ltoes 3.85422
759
root 0.817141 17.4818 8.53973 6.50433 -0.931733 -8.83628
lowerback -3.88763 0.953555 6.13568
upperback -5.00904 1.21883 2.3667
thorax -2.93062 0.452587 -0.972323
lowerneck -2.25846 -4.04513 -0.77489
upperneck 26.7891 -7.04785 5.60209
head 8.96676 -2.87204 1.45913
rclavicle 3.00662e-015 2.76311e-014
rhumerus 5.80008 61.5686 -93.7856
rradius 138.705
rwrist -2.36
rhand -33.8342 -55.5829
rfingers 7.12502
rthumb -7.0195 -805.446
lclavicle 3.00662e-015 2.76311e-014
lhumerus -6.86887 -59.8903 101.036
lradius 136.094
lwrist 36.0999
lhand -38.0663 -50.6074
lfingers 7.12502
lthumb -11.1032 -20.9211
rfemur -2.41135 23.6089 26.3738
rtibia 4.90906
rfoot -12.8532 -21.2463
rtoes 1.40493
lfemur 6.0498 -39.3384 -11.382
ltibia -3.26721
lfoot -17.027 46.5646
ltoes 3.77857
760
root 0.816634 17.4815 8.54125 6.48894 -0.930606 -8.85442
lowerback -3.87436 0.990306 6.15448
upperback -5.01911 1.26845 2.32871
thorax -2.94448 0.475546 -1.02144
lowerneck -2.18336 -4.01543 -0.581446
upperneck 26.6386 -7.00989 5.58908
head 8.8915 -2.8418 1.42673
rclavicle 2.36305e-014 -1.23246e-014
rhumerus 5.75814 61.315 -93.8376
rradius 138.656
rwrist -2.49131
rhand -33.8946 -55.3272
rfingers 7.12502
rthumb -7.07778 -805.189
lclavicle 2.36305e-014 -1.23246e-014
lhumerus -6.80445 -59.9058 101.023
lradius 135.972
lwrist 35.8875
lhand -38.0139 -51.1748
lfingers 7.12502
lthumb -11.0527 -21.4858
rfemur -2.41585 23.5778 26.4034
rtibia 4.93787
rfoot -12.8464 -21.2401
rtoes 1.16115
lfemur 6.07003 -39.307 -11.3684
ltibia -3.28672
lfoot -16.8271 46.5863
ltoes 3.45983
761
root 0.816777 17.4817 8.5434 6.47894 -0.942027 -8.88961
lowerback -3.87094 1.08485 6.23119
upperback -5.03907 1.39248 2.22565
thorax -2.95594 0.532413 -1.16862
lowerneck -1.95853 -4.03988 -0.291424
upperneck 26.332 -7.06433 5.66548
head 8.73847 -2.84491 1.40407
rclavicle -7.65321e-015 -2.98177e-015
rhumerus 5.6595 60.8511 -93.9753
rradius 138.595
rwrist -2.6166
rhand -33.7986 -55.0494
rfingers 7.12502
rthumb -6.98513 -804.914
lclavicle -7.65321e-015 -2.98177e-015
lhumerus -6.77693 -60.1804 101.038
lradius 135.903
lwrist 35.6607
lhand -38.2617 -51.5581
lfingers 7.12502
lthumb -11.2916 -21.882
rfemur -2.41896 23.5372 26.4475
rtibia 4.97521
rfoot -12.8773 -21.1866
rtoes 1.25464
lfemur 6.10136 -39.2749 -11.3481
ltibia -3.30274
lfoot -16.6864 46.6082
ltoes 3.16973
762
root 0.816878 17.4825 8.54616 6.47887 -0.95083 -8.89323
lowerback -3.90121 1.15502 6.2679
upperback -5.04844 1.48171 2.14909
thorax -2.94035 0.574589 -1.26607
lowerneck -1.6898 -4.06422 -0.0787415
upperneck 25.9806 -7.10106 5.73019
head 8.56394 -2.85145 1.39327
rclavicle -2.93207e-015 -3.18055e-014
rhumerus 5.61036 60.4763 -94.0625
rradius 138.502
rwrist -2.58392
rhand -33.6359 -54.9
rfingers 7.12502
rthumb -6.82811 -804.77
lclavicle -2.93207e-015 -3.18055e-014
lhumerus -6.66061 -60.4001 100.989
lradius 135.851
lwrist 35.5017
lhand -38.4816 -52.0148
lfingers 7.12502
lthumb -11.5038 -22.3504
rfemur -2.41814 23.5084 26.4541
rtibia 5.01167
rfoot -12.9248 -21.1332
rtoes 1.37039
lfemur 6.13761 -39.3168 -11.3824
ltibia -3.28476
lfoot -16.8684 46.6426
ltoes 3.3664
763
root 0.816596 17.4827 8.54852 6.46703 -0.950226 -8.86444
lowerback -3.90557 1.1481 6.21947
upperback -5.04356 1.4729 2.15993
thorax -2.93435 0.572248 -1.22804
lowerneck -1.5053 -4.01229 0.0047012
upperneck 25.7086 -7.00857 5.72534
head 8.4296 -2.81211 1.38929
rclavicle -8.10048e-015 3.93594e-014
rhumerus 5.64837 60.283 -94.0472
rradius 138.422
rwrist -2.76904
rhand -33.5495 -54.5458
rfingers 7.12502
rthumb -6.74472 -804.418
lclavicle -8.10048e-015 3.93594e-014
lhumerus -6.51621 -60.428 100.935
lradius 135.791
lwrist 35.3107
lhand -38.6215 -52.706
lfingers 7.12502
lthumb -11.6386 -23.0492
rfemur -2.39626 23.4841 26.4306
rtibia 5.01904
rfoot -12.9191 -21.1265
rtoes 1.16307
lfemur 6.18991 -39.3785 -11.4576
ltibia -3.29338
lfoot -17.0234 46.694
ltoes 3.58366
764
root 0.816872 17.4825 8.55086 6.44493 -0.954513 -8.83208
lowerback -3.88997 1.09089 6.12882
upperback -5.04503 1.401 2.22752
thorax -2.95231 0.540121 -1.10944
lowerneck -1.30109 -3.88813 0.0716815
upperneck 25.4693 -6.80024 5.65584
head 8.29748 -2.72491 1.37572
rclavicle -1.6524e-014 4.77083e-014
rhumerus 5.65785 60.2909 -94.0565
rradius 138.395
rwrist -2.93076
rhand -33.508 -54.2651
rfingers 7.12502
rthumb -6.70459 -804.139
lclavicle -1.6524e-014 4.77083e-014
lhumerus -6.46763 -60.3554 100.953
lradius 135.745
lwrist 34.9959
lhand -38.9266 -53.3416
lfingers 7.12502
lthumb -11.9329 -23.7017
rfemur -2.34855 23.4964 26.4036
rtibia 4.99049
rfoot -12.9269 -21.142
rtoes 1.07298
lfemur 6.25679 -39.4128 -11.5395
ltibia -3.33568
lfoot -16.8253 46.7583
ltoes 3.30621
765
root 0.817369 17.4831 8.55381 6.40683 -0.953523 -8.80787
lowerback -3.89223 1.01306 6.04551
upperback -5.03714 1.2998 2.31304
thorax -2.95223 0.494057 -0.97645
lowerneck -1.0918 -3.74422 0.169742
upperneck 25.2585 -6.54199 5.46659
head 8.16819 -2.6209 1.32031
rclavicle -3.60297e-015 3.37934e-014
rhumerus 5.64283 60.4527 -94.0974
rradius 138.409
rwrist -2.86534
rhand -33.2723 -54.2977
rfingers 7.12502
rthumb -6.47714 -804.179
lclavicle -3.60297e-015 3.37934e-014
lhumerus -6.48407 -60.2486 100.996
lradius 135.682
lwrist 34.5052
lhand -39.3634 -53.9172
lfingers 7.12502
lthumb -12.354 -24.3022
rfemur -2.26821 23.5351 26.3958
rtibia 4.94581
rfoot -12.9346 -21.179
rtoes 1.22814
lfemur 6.35225 -39.4746 -11.6375
ltibia -3.35126
lfoot -16.8218 46.795
ltoes 3.35308
766
root 0.817078 17.4839 8.55634 6.3702 -0.944847 -8.81557
lowerback -3.87769 0.939044 6.01931
upperback -5.03981 1.20466 2.39621
thorax -2.97109 0.448452 -0.877746
lowerneck -0.925078 -3.6197 0.261147
upperneck 25.1048 -6.30174 5.21246
head 8.06595 -2.52878 1.24171
rclavicle -1.08586e-014 1.15295e-014
rhumerus 5.5975 60.6927 -94.1617
rradius 138.396
rwrist -2.92476
rhand -33.2417 -54.2289
rfingers 7.12502
rthumb -6.44754 -804.111
lclavicle -1.08586e-014 1.15295e-014
lhumerus -6.55903 -60.1507 101.085
lradius 135.585
lwrist 33.9202
lhand -39.6844 -54.5883
lfingers 7.12502
lthumb -12.6635 -24.9923
rfemur -2.19522 23.5527 26.4303
rtibia 4.91419
rfoot -12.9339 -21.1946
rtoes 1.43365
lfemur 6.4344 -39.5225 -11.6845
ltibia -3.35418
lfoot -16.94 46.8087
ltoes 3.57355
